<svg xmlns="http://www.w3.org/2000/svg" fill="none" viewBox="8.450000000000001 7.93 48.36 48.36" style="max-height: 500px" width="48.36" height="48.36">
<g clip-path="url(#clip0_4140_8339)">
<path fill="#0E0F0D" d="M55.7865 25.3656C55.7656 25.1931 55.7379 25.0216 55.7035 24.8513C55.6717 24.6743 55.6311 24.499 55.5819 24.326L55.4506 24.1159C54.9202 23.7085 54.3462 23.3613 53.7392 23.0805C53.2537 22.8519 52.7583 22.6448 52.2545 22.4598C50.8584 18.5533 48.4572 15.0877 45.3013 12.6727C42.0389 10.179 38.2015 8.85742 34.2051 8.85742C30.2073 8.85742 26.3698 10.179 23.1075 12.6727C19.9515 15.0877 17.5504 18.5533 16.1542 22.4612C15.6538 22.6465 15.1589 22.8497 14.6709 23.0805C14.0793 23.3667 13.4973 23.6888 12.9582 24.1159L12.8269 24.3246C12.7338 24.6663 12.6655 25.0141 12.6223 25.3656C12.5743 25.7077 12.5415 26.0518 12.5241 26.3968C12.4549 27.7809 12.6037 29.1673 12.9651 30.5052C13.0591 30.8411 13.1683 31.1729 13.2941 31.4991C13.3577 31.6636 13.4268 31.8267 13.5042 31.9898C13.5415 32.0714 13.583 32.1502 13.6259 32.2331C13.7199 32.399 13.7365 32.4308 13.7752 32.4903L13.9535 32.6548C14.0682 32.7142 14.1636 32.7598 14.2687 32.8096L14.5728 32.9478L14.7401 33.0169C13.1308 34.51 11.7216 36.205 10.5474 38.0598L8.90234 40.6766L11.2109 38.6321C11.2524 38.5975 13.1877 36.9069 16.4182 34.9923L16.4639 35.3656C16.2524 35.4761 15.2363 36.0153 14.935 36.2696C14.4345 36.6885 14.4097 37.3382 14.5438 38.5505C14.6129 39.1726 14.8437 40.3808 15.1561 41.4866C15.6939 43.3915 16.0865 43.7275 16.4334 43.8063C16.5883 43.845 16.7901 43.8615 17.0168 43.8615C17.6347 43.8615 18.4268 43.7399 18.9452 43.5823C19.5223 45.4068 20.3694 47.1346 21.4583 48.7081L21.3076 48.7537C20.1185 48.1966 18.9273 47.6436 17.7342 47.0949L16.186 46.3913L17.1011 47.8331C17.1689 47.9367 18.7475 50.4208 20.0373 52.0949C21.2441 53.6556 22.896 55.2536 26.0132 55.2536C26.3892 55.2536 26.7818 55.2287 27.1854 55.1845C28.1158 55.0766 28.8139 54.9909 29.3447 54.9232C32.6167 56.1355 36.2247 56.2088 39.6488 54.9025C40.5463 54.5582 41.4087 54.1286 42.2241 53.6196C43.5443 53.3003 44.9889 52.9533 45.7008 52.7515C45.8155 52.7197 45.9593 52.6852 46.1086 52.6506C47.1025 52.4197 48.7627 52.0313 49.6474 50.2453C50.42 48.7067 51.2079 47.1759 52.0112 45.6531L52.6928 44.3647L51.3657 44.9453C51.2966 44.9785 49.6156 45.7167 48.742 46.177C49.3488 44.7698 49.7055 43.6044 49.8313 43.1565C50.3192 43.2754 51.0436 43.2602 51.5772 43.2602C51.8398 43.2602 52.1094 43.2146 52.2836 43.169C52.6292 43.0805 52.8973 42.8483 53.4005 40.8839C53.6936 39.7407 53.9037 38.498 53.9618 37.858C54.0723 36.6138 54.0364 35.9475 53.5332 35.5273C53.2816 35.3172 52.5462 34.9191 52.1716 34.7214C52.3803 34.6301 52.484 34.6578 52.4909 34.6592L52.831 33.3598C52.9513 33.3086 53.077 33.2561 53.2222 33.2008C53.4268 33.1178 53.6328 33.0363 53.8373 32.9464L54.1415 32.8082C54.2465 32.7598 54.3419 32.7142 54.4566 32.6534L54.635 32.4889C54.6723 32.4308 54.693 32.399 54.7179 32.3534C54.8285 32.1502 54.8686 32.07 54.9059 31.9898C54.9833 31.8267 55.0511 31.6622 55.116 31.4991C55.2404 31.1729 55.351 30.8411 55.445 30.5038C55.8952 28.8301 56.0112 27.0841 55.7865 25.3656Z"/>
<path fill="#E1C5A2" d="M36.4886 52.6782C36.2909 52.7169 36.0919 52.7473 35.8956 52.7667C35.7684 52.775 35.6343 52.7916 35.5127 52.7916H35.467C35.6191 52.3603 35.7366 52.0244 35.8237 51.77C36.0034 52.0244 36.2315 52.3396 36.4886 52.6782Z"/>
<path fill="#A89983" d="M36.2123 32.3741C35.8197 32.7045 35.4064 33.0114 34.9751 33.281L33.5374 34.1781C32.9533 34.2547 32.3757 34.3748 31.8095 34.5375C31.7567 34.5547 31.7088 34.5844 31.6701 34.6241C31.6313 34.6639 31.6028 34.7124 31.5869 34.7656L30.123 39.7532L22.3002 41.553L19.8354 39.767L19.1194 33.7593C20.9483 33.4156 22.7889 33.1376 24.6378 32.9257C24.3931 33.2298 24.1609 33.5422 23.9411 33.8657L22.6029 35.8521L24.5521 34.5085C24.5811 34.4878 25.8211 33.6431 27.8518 32.6147C30.6331 32.3993 33.4232 32.319 36.2123 32.3741ZM24.0364 39.1435C24.5922 38.8325 25.2197 38.8781 26.2026 38.8809C26.3077 38.8809 26.4169 38.8809 26.5302 38.8781C26.627 38.8781 26.7237 38.8754 26.826 38.8726C27.8393 38.8615 28.6812 38.9611 28.666 37.3175C28.6521 35.6724 27.9444 34.3426 26.9325 34.3523C25.9206 34.362 24.9405 35.7098 25.0013 37.3534C25.0165 37.7819 25.0787 38.0916 25.1755 38.3127C24.2936 38.5422 24.0489 39.109 24.0364 39.1435ZM49.7718 33.7399L49.0668 38.8477L46.5827 40.6489L38.7696 39.7297L37.3112 34.7642C37.296 34.7107 37.2677 34.6618 37.2289 34.622C37.19 34.5822 37.1418 34.5526 37.0887 34.5361C36.4217 34.3442 35.7389 34.2128 35.0483 34.1435L35.2363 34.1297C35.3967 34.1173 38.0923 33.7772 41.3104 32.6299C44.8728 32.9119 47.7826 33.3639 49.7705 33.7399H49.7718ZM44.7801 38.4676C44.7691 38.4289 44.5548 37.7681 43.6148 37.8842C43.7226 37.6395 43.771 37.3092 43.7378 36.8571C43.6134 35.2149 42.6886 33.9099 41.6781 33.9473C40.6649 33.9832 40.0179 35.3434 40.0746 36.9912C40.1299 38.6348 40.9786 38.6224 41.9905 38.5851C43.3508 38.5588 44.0973 38.1275 44.7801 38.469V38.4676Z"/>
<path fill="white" d="M42.618 35.9171C42.6198 36.0514 42.5683 36.1809 42.4748 36.2774C42.3812 36.3738 42.2532 36.4291 42.1189 36.4313C41.9837 36.4336 41.853 36.3825 41.7554 36.2889C41.7074 36.2433 41.6689 36.1886 41.6421 36.128C41.6154 36.0674 41.601 36.0021 41.5997 35.9358C41.5984 35.8696 41.6103 35.8038 41.6347 35.7422C41.659 35.6806 41.6953 35.6245 41.7415 35.577C41.8116 35.505 41.9013 35.4552 41.9995 35.4339C42.0976 35.4126 42.1999 35.4206 42.2935 35.457C42.3871 35.4934 42.468 35.5566 42.5259 35.6387C42.5838 35.7207 42.6163 35.818 42.6193 35.9184M28.3147 36.2889C28.3778 36.3467 28.4256 36.4192 28.4536 36.5001C28.4816 36.581 28.489 36.6675 28.4751 36.752C28.4612 36.8364 28.4265 36.916 28.374 36.9837C28.3216 37.0513 28.2531 37.1047 28.1747 37.1392C28.0964 37.1736 28.0107 37.188 27.9254 37.181C27.8401 37.1739 27.758 37.1457 27.6863 37.0989C27.6147 37.0521 27.5559 36.9881 27.5152 36.9128C27.4746 36.8375 27.4533 36.7533 27.4535 36.6677C27.3793 36.5994 27.3275 36.5104 27.3047 36.4122C27.2818 36.3141 27.2891 36.2113 27.3255 36.1174C27.3619 36.0234 27.4257 35.9425 27.5087 35.8854C27.5917 35.8282 27.69 35.7973 27.7908 35.7968C27.8575 35.7946 27.924 35.8056 27.9865 35.8291C28.049 35.8527 28.1062 35.8883 28.1549 35.9341C28.2036 35.9798 28.2428 36.0347 28.2702 36.0956C28.2976 36.1565 28.3127 36.2222 28.3147 36.2889Z"/>
<path fill="#E1C5A2" d="M53.7044 36.9841C53.5828 36.8845 53.175 36.6551 52.7783 36.4449L52.1244 40.9542C52.1171 40.9978 52.1011 41.0395 52.0774 41.0768C52.0536 41.1141 52.0226 41.1462 51.9862 41.1712L51.0517 41.8154L50.9964 42.1002C51.9143 42.3227 52.8073 41.6716 53.3091 41.2003C53.5399 40.3114 53.7418 39.2567 53.8123 38.5019C53.9187 37.3324 53.8247 37.0808 53.7044 36.9841ZM39.2588 54.1143C38.6412 53.8956 38.0792 53.544 37.6124 53.0844L37.4921 52.9655C37.1131 53.0419 36.73 53.0964 36.3448 53.1286C36.1803 53.1356 36.024 53.1494 35.8526 53.1494L35.5983 53.1508L35.5015 53.1494C34.9209 53.9968 33.9464 54.4626 33.1819 54.7114C35.4517 55.0944 37.9483 54.5082 39.2588 54.1143ZM19.2795 43.072L19.2187 42.8674L18.0022 42.0311C17.9651 42.0051 17.9339 41.9716 17.9106 41.9328C17.8872 41.894 17.8723 41.8507 17.8667 41.8057L17.2737 37.0712C16.8355 37.3006 16.3282 37.5854 16.1941 37.696C16.0766 37.7927 15.9867 38.0347 16.1139 39.1627C16.2107 40.0114 16.5134 41.3136 16.8217 42.2909C17.4368 42.754 18.3423 43.242 19.2795 43.072ZM37.4437 42.8549C37.3806 42.8482 37.3208 42.8231 37.2717 42.7828C37.2226 42.7426 37.1863 42.6888 37.1673 42.6282L35.6674 37.7651C35.4475 37.7343 35.2259 37.7172 35.0039 37.714C34.8159 37.714 34.5933 37.7333 34.3417 37.7651L32.8847 42.4886C32.8673 42.5433 32.8357 42.5924 32.7933 42.631C32.7508 42.6696 32.6989 42.6963 32.6428 42.7084L31.9461 42.8605C31.8866 43.1024 31.6862 43.459 31.0406 43.654C29.997 43.9664 23.3962 45.9031 22.6428 45.7966C22.2032 45.7372 21.3669 45.2824 20.749 44.916C20.5976 44.5693 20.4593 44.217 20.3343 43.8599V43.8572L20.3315 43.8599C20.4186 44.1115 21.2798 46.5514 23.0299 48.9387C24.9071 48.3954 26.5272 47.8881 27.0456 47.7264C28.1004 46.1242 29.6044 44.5345 30.6729 44.4806C31.3572 44.4459 32.0432 44.4713 32.723 44.5566C32.3304 44.2041 32.2488 43.7936 32.1921 43.6111C32.1921 43.6111 33.5551 44.6617 35.29 44.4405C37.0276 44.2207 38.1059 43.2365 38.1059 43.2365L38.1391 42.9324L37.4437 42.8549Z"/>
<path fill="#E1C5A2" d="M39.01 42.9835C38.6533 42.8868 38.428 42.7347 38.2856 42.5743L38.2677 42.7375C38.2677 42.7375 38.2621 43.4881 37.5101 44.0701C38.9575 43.6166 39.556 43.4618 39.9652 43.4618C40.4159 43.4618 40.6384 43.6567 40.8347 43.8281C40.872 43.8599 40.908 43.8945 40.9536 43.9304C41.9019 44.7046 42.8488 45.4814 43.7943 46.2611C44.2464 46.3164 45.684 46.485 46.5895 46.5707C47.1092 46.6205 47.582 46.662 48.0437 46.662C48.1916 46.662 48.3312 46.6565 48.464 46.6482C48.9409 45.7012 49.3805 44.6548 49.7717 43.5005C49.2367 43.889 48.0175 44.7405 47.4465 44.8497C46.7028 44.9935 40.0578 43.2641 39.01 42.9835Z"/>
<path fill="#E0D896" d="M54.8382 25.5341C54.8158 25.263 54.7835 24.9928 54.7414 24.7241C54.3115 24.3639 53.8503 24.0428 53.3632 23.7647C52.831 23.4468 52.2753 23.162 51.7071 22.8994C51.1397 22.6299 50.5644 22.3773 49.982 22.1418C49.6917 22.0202 49.3972 21.9041 49.1028 21.7935C48.8083 21.676 48.5125 21.5668 48.2153 21.4562C48.8387 21.5626 49.4567 21.7078 50.0704 21.8681C50.4685 21.9718 50.8653 22.0893 51.2593 22.2165C48.4558 14.7448 41.7583 9.87891 34.4442 9.87891C27.1302 9.87891 20.4326 14.7448 17.632 22.2165C18.0259 22.0907 18.4227 21.9718 18.8208 21.8681C19.4318 21.7078 20.0511 21.5626 20.6745 21.4576C20.3759 21.5681 20.0801 21.676 19.7857 21.7935C19.4912 21.9041 19.1982 22.0216 18.9079 22.1418C18.3259 22.381 17.7467 22.627 17.1813 22.8994C16.6145 23.162 16.0588 23.4454 15.5266 23.7647C15.0397 24.043 14.5784 24.364 14.1484 24.7241C14.1054 24.9927 14.0731 25.2629 14.0516 25.5341C13.9319 27.1311 14.0819 28.7368 14.4954 30.2839C14.5769 30.588 14.6723 30.888 14.7815 31.1825C14.8635 31.3974 14.9548 31.6086 15.0552 31.8156L15.0953 31.893L15.2336 31.9635L15.5128 32.099C15.6676 32.1722 15.8833 32.2759 16.0616 32.3575L16.0892 32.3298L15.5722 30.3212C15.6828 30.2908 16.6643 30.0309 18.3549 29.7019C17.8268 29.6016 17.31 29.4487 16.8122 29.2458C16.6294 29.1676 16.4512 29.079 16.2786 28.9804C16.1033 28.8849 15.9445 28.7617 15.8086 28.6154C17.6665 29.2347 21.5067 28.9541 24.9211 28.5947C28.0425 28.2657 31.1736 28.0528 34.3198 28.0459C37.4647 28.0528 40.5971 28.2657 43.7171 28.5947C47.1329 28.9541 50.9745 29.2347 52.831 28.6154C52.7024 28.7675 52.5324 28.8794 52.3624 28.9804C52.1891 29.0783 52.0105 29.1664 51.8274 29.2444C51.4583 29.3964 51.0809 29.5153 50.6939 29.6135L50.5225 29.6536C52.3776 30.0033 53.4572 30.2894 53.5719 30.3212L53.0784 32.2344C53.178 32.1902 53.2789 32.146 53.3756 32.099L53.6549 31.9635L53.7959 31.893L53.8332 31.8156C53.9347 31.6091 54.026 31.3978 54.1069 31.1825C54.2162 30.8874 54.3121 30.5876 54.3944 30.2839C54.5631 29.6743 54.6778 29.0426 54.7621 28.4067C54.8849 27.4542 54.9104 26.4917 54.8382 25.5341Z"/>
<path fill="#D7C184" d="M42.1481 21.4258C42.1758 22.2815 42.1564 23.8311 41.7652 25.2826C41.7505 25.3374 41.7505 25.3951 41.7652 25.4499C41.2676 25.3973 40.7713 25.3503 40.2723 25.3089C40.8307 24.1173 40.9524 22.8483 40.98 22.399C41.4086 22.0893 41.8357 21.7161 42.1481 21.4258ZM27.914 22.399C27.9416 22.8469 28.0619 24.1131 28.619 25.3061C28.1213 25.3476 27.6237 25.3932 27.1288 25.4471C27.1429 25.3932 27.1429 25.3365 27.1288 25.2826C26.739 23.8339 26.7182 22.2829 26.7445 21.4258C27.0597 21.7161 27.484 22.0893 27.914 22.399ZM48.2582 26.6345C48.2559 26.649 48.2527 26.6634 48.2485 26.6774L48.4116 26.7285C48.8705 26.8806 49.3323 27.0423 49.7718 27.2497C49.0378 26.7631 48.572 25.36 48.3121 24.2887C48.384 25.6918 48.2651 26.5834 48.2582 26.6345ZM26.1321 21.1576L21.3837 22.5345C21.1847 23.7978 21.1337 25.0801 21.2316 26.3553L21.2551 26.3415C21.2551 26.3415 21.41 24.2887 21.7251 23.5021C21.8883 23.0985 22.8822 22.84 23.6397 22.6547C24.4 22.4709 25.6109 22.1018 25.846 23.1897C25.9911 23.8615 26.1915 24.42 26.3823 24.8319C26.0782 23.339 26.0948 21.8778 26.1321 21.1576ZM42.7605 21.1576C42.7992 21.9069 42.8158 23.4523 42.473 25.0061C42.6886 24.5845 42.9292 23.9624 43.095 23.1897C43.33 22.1032 44.541 22.4709 45.2999 22.6561C46.0602 22.84 47.0527 23.0985 47.2159 23.5021C47.4827 24.1684 47.6347 25.7388 47.6748 26.206C47.719 25.6061 47.7702 24.2569 47.5103 22.5345L42.7605 21.1576ZM27.8766 21.5779C28.0439 21.7147 28.2167 21.8447 28.3936 21.9677C28.4766 22.0258 28.5277 22.1225 28.5291 22.2248C28.5291 22.2414 28.5664 23.8366 29.2576 25.1941C29.2673 25.2149 29.2742 25.237 29.2811 25.2577C31.0006 25.1425 32.7236 25.0862 34.447 25.0891C36.168 25.0904 37.8932 25.1416 39.6115 25.2619C39.6184 25.2397 39.6253 25.2162 39.6364 25.1941C40.3276 23.8366 40.3649 22.2414 40.3649 22.2248C40.366 22.1742 40.379 22.1246 40.4027 22.08C40.4265 22.0353 40.4604 21.9969 40.5017 21.9677C40.6718 21.8488 40.8376 21.723 40.9994 21.5903L41.0201 21.5281C41.3795 17.9616 40.7201 14.6716 40.3013 13.0487C40.2792 14.1587 40.0207 23.6777 37.7038 23.6777H31.309C28.8484 23.6777 28.6508 12.9464 28.6508 12.9464L28.5236 13.3266C28.1033 15.0379 27.5283 18.1828 27.8766 21.5779ZM20.6455 26.6774L20.6358 26.6359C20.6289 26.582 20.51 25.6904 20.5805 24.2859C20.322 25.3586 19.8548 26.7645 19.1194 27.2497C19.559 27.0423 20.0221 26.8806 20.4824 26.7272L20.6455 26.6774Z"/>
<path fill="#9F8F78" d="M50.5692 41.4356C50.5305 41.6429 50.4863 41.8503 50.4338 42.0562C50.9591 42.1793 51.8189 42.2747 52.2308 42.1945C52.405 42.0009 52.6317 41.3333 52.8363 40.5315C52.3456 41.0043 51.4706 41.6581 50.5692 41.4356ZM31.7401 54.4007C32.9939 54.7463 34.2768 54.8984 35.5388 54.8127C37.1391 54.7036 38.7117 54.3401 40.1974 53.7358C39.8114 53.7075 39.431 53.627 39.0666 53.4966C37.7824 53.8906 35.3343 54.4795 33.11 54.0952C32.5212 54.2901 32.0594 54.3509 32.0152 54.3579C31.9225 54.3686 31.8303 54.3829 31.7387 54.4007M19.5671 42.6935C19.538 42.5995 19.5118 42.5055 19.4841 42.4101C18.5662 42.5815 17.6774 42.0922 17.076 41.6263C17.2696 42.2567 17.4673 42.7502 17.6152 42.9009C18.0686 42.981 19.0749 42.84 19.5671 42.6935ZM20.9245 44.2625C21.53 44.6302 22.3484 45.0864 22.781 45.1472C23.5178 45.2523 29.9887 43.3087 31.0102 42.9949C31.6447 42.7986 31.841 42.4419 31.8991 42.1986L22.564 44.2943C22.5412 44.2985 22.5181 44.3008 22.4949 44.3012C22.4291 44.3011 22.3636 44.2808 22.3097 44.2431L21.9461 43.9874L20.8554 43.2174L20.4158 42.9064L20.4407 42.981C20.4656 43.0543 20.4891 43.1276 20.5154 43.1994V43.2008C20.5472 43.2948 20.6812 43.6847 20.9232 44.2611M49.5574 42.4544C49.6182 42.2332 49.6762 42.0065 49.7288 41.7798L49.4053 42.0092L48.5344 42.6258L47.5903 43.2921C47.5257 43.3368 47.4472 43.3569 47.3691 43.3487L37.969 42.2705L37.9552 42.4198C38.0935 42.5719 38.316 42.7198 38.6685 42.811C39.7025 43.0806 46.2521 44.7408 46.9834 44.6012C47.5474 44.4975 48.7487 43.6805 49.2754 43.3073L49.2892 43.27C49.3818 42.999 49.4717 42.7267 49.5574 42.4544Z"/>
<path fill="#6E6A67" d="M39.6252 29.2927L39.3832 29.6134C38.9367 30.1968 38.3188 30.9405 37.5862 31.6704C35.2841 31.5996 32.9802 31.6213 30.6799 31.7354C32.5972 30.9142 34.9002 30.1097 37.394 29.6286C38.1323 29.4832 38.8768 29.3711 39.6252 29.2927ZM28.4059 30.1802C27.7216 30.6778 26.9489 31.311 26.1997 32.0809C24.5352 32.253 22.8765 32.4765 21.2259 32.7514C23.5241 31.6488 25.9302 30.7871 28.4059 30.1802ZM51.8521 34.2775L51.0711 39.9245L47.3318 42.6339L37.5793 41.4865L36.1126 36.4865C36.0959 36.4279 36.063 36.3752 36.0178 36.3344C35.9726 36.2936 35.9168 36.2663 35.8568 36.2557C35.5441 36.2001 35.2275 36.1701 34.9099 36.1658C34.6417 36.1658 34.3238 36.1935 33.9602 36.2557C33.9004 36.2668 33.8449 36.2942 33.7997 36.3349C33.7546 36.3757 33.7216 36.4282 33.7045 36.4865L32.2738 41.3663L22.5765 43.596L18.7335 40.8133L17.976 34.4752C18.1419 34.3784 18.3105 34.2817 18.4778 34.1877C18.7156 34.1337 18.9837 34.0771 19.2796 34.0204L19.9929 40.0005C19.9982 40.0459 20.013 40.0896 20.0364 40.1289C20.0597 40.1682 20.091 40.2022 20.1283 40.2286L22.7728 42.1459C22.809 42.1716 22.8503 42.1895 22.8939 42.1983C22.9374 42.2071 22.9824 42.2067 23.0258 42.1971L30.9992 40.3627C31.0549 40.3485 31.1059 40.32 31.1471 40.2799C31.1883 40.2399 31.2184 40.1898 31.2342 40.1346L32.6719 35.2465C33.0562 35.1443 34.0432 34.9051 34.9099 34.9051C35.7753 34.9051 36.7623 35.1443 37.148 35.2465L38.5828 40.1346C38.6 40.196 38.6348 40.2511 38.683 40.2929C38.7311 40.3346 38.7905 40.3613 38.8538 40.3696L46.8272 41.3054C46.9049 41.3138 46.9829 41.2925 47.0457 41.246L49.6915 39.3342C49.7638 39.2796 49.8115 39.1986 49.8242 39.1089L50.5292 33.9983C51.06 34.1033 51.5038 34.2001 51.8521 34.2775ZM52.8364 30.7359L52.1493 33.4287C50.7462 33.108 47.6636 32.4791 43.4681 32.0561C44.8366 31.452 46.2328 30.6944 47.5101 29.7461C50.0067 30.1111 51.8397 30.5023 52.8364 30.7359ZM17.0747 30.7359L17.2669 31.481C17.7313 31.0981 18.211 30.7318 18.7017 30.3848C18.0299 30.5189 17.4811 30.6405 17.0761 30.7359"/>
<path fill="#93232C" d="M44.0943 29.1891C43.0382 29.1283 41.9821 29.0757 40.9246 29.0315C40.8057 29.2098 40.6854 29.3854 40.5596 29.5596C39.9929 30.342 38.8773 31.7714 37.4452 32.9961C38.5234 32.6464 42.7949 31.1825 44.9597 29.243C44.6713 29.2236 44.3828 29.2065 44.0943 29.1891ZM36.3517 28.9043L36.3559 28.903C35.8195 28.896 35.2831 28.8891 34.7482 28.8877C33.9602 28.8891 33.1723 28.9002 32.3843 28.914L30.9315 29.619C29.8367 30.5558 28.6848 31.4238 27.4825 32.2179C28.464 31.5433 31.0849 29.9453 35.1587 28.8919C35.5569 28.8947 35.955 28.896 36.3517 28.9043ZM27.4189 29.084C26.7471 29.1145 26.0725 29.1504 25.4007 29.1891C24.6223 29.234 23.8445 29.2865 23.0672 29.3467C22.5701 29.3856 22.0738 29.4335 21.5784 29.4905C20.5638 30.1098 16.6793 32.6021 14.01 35.8631L14.151 35.6959C19.0916 31.3871 24.5077 29.7116 27.4189 29.084ZM49.7717 46.8004L49.6818 46.846C49.1869 47.1128 48.5372 47.2427 47.6981 47.2427C47.2005 47.2427 46.7097 47.2013 46.1665 47.1501C45.1861 47.0526 44.2069 46.9443 43.229 46.8253L43.088 46.8101L42.9774 46.7174C42.9608 46.7064 41.3545 45.3973 40.0551 44.3536L39.9099 44.2319C39.7731 44.1131 39.7731 44.1131 39.6915 44.1131C39.2754 44.1131 38.0631 44.4974 35.4103 45.3365L35.2486 45.3904L35.0869 45.3282C35.0689 45.3226 33.3285 44.6632 31.2425 44.6632C31.0711 44.6632 30.9011 44.6674 30.7352 44.6771C30.5278 44.6867 29.3528 45.2563 27.8543 47.6809L27.7576 47.8371L27.5848 47.8924C27.5599 47.9021 24.979 48.7523 22.2406 49.5527L22.065 49.6038L21.895 49.525C21.8784 49.5181 20.8085 49.0108 19.7897 48.5325L20.0164 48.6389C21.0213 49.5264 22.947 51.2322 23.1612 51.4686C23.1916 51.5032 23.2331 51.5446 23.2815 51.593C23.2318 51.5351 23.1834 51.4761 23.1364 51.4161L23.135 51.4133C23.5773 51.8446 24.075 52.2151 24.6141 52.4777C24.885 52.6063 25.167 52.7072 25.456 52.7556C25.6011 52.7805 25.7421 52.7929 25.8886 52.7929C26.0379 52.7929 26.19 52.7874 26.342 52.7791C26.948 52.747 27.5532 52.7009 28.1571 52.6408C28.7612 52.5855 29.3666 52.5233 29.9721 52.4487C30.5748 52.3823 31.1789 52.3049 31.7775 52.2095C32.0775 52.1653 32.376 52.1142 32.6663 52.0492C32.8101 52.0146 32.958 51.9759 33.0714 51.9248C33.1938 51.8556 33.3074 51.7721 33.4101 51.676C33.6354 51.4769 33.8524 51.2571 34.0681 51.0387C34.2837 50.8175 34.4966 50.5936 34.7039 50.3655C35.0592 49.9867 35.3633 49.5831 35.7062 49.1932L35.8402 49.0412L35.8416 49.0426L35.8458 49.0481C35.9177 49.1006 35.9882 49.1531 36.0587 49.2098C36.472 49.525 36.8977 49.8651 37.3097 50.1595C37.8391 50.5397 38.3769 50.9212 38.9326 51.2391C39.0708 51.3179 39.2146 51.3912 39.3514 51.4382C39.3661 51.444 39.3814 51.4481 39.3971 51.4506C39.4135 51.4571 39.4307 51.4613 39.4482 51.4631L39.545 51.4714C39.621 51.4714 39.6984 51.4686 39.7758 51.4645C40.0896 51.4423 40.4076 51.3953 40.7255 51.3442C41.3614 51.2433 41.9973 51.1272 42.6304 50.9972C43.2649 50.8728 43.898 50.7401 44.5284 50.5963C45.1601 50.4595 45.7891 50.3102 46.4153 50.1484C46.7263 50.0627 47.0374 49.9826 47.3152 49.8471C47.5986 49.713 47.8612 49.5278 48.1032 49.3149C48.5925 48.8905 49.0031 48.3624 49.3445 47.7888V47.7901C49.5118 47.4722 49.6542 47.1404 49.7717 46.8004ZM37.9276 16.2848H39.0446V13.9666H30.8762V16.2848H31.9931V15.107H34.3031V22.2704H33.352V23.6002H36.5687V22.2704H35.6177V15.107H37.9276V16.2848Z"/>
<path fill="#731B2A" d="M46.295 29.7544C45.8317 29.7177 45.3681 29.6836 44.9044 29.6521L44.8781 29.6494C42.7202 31.622 38.4584 33.1122 37.3843 33.4661L37.3221 33.5214C38.7045 33.2629 40.7711 32.7472 42.9152 31.7589C43.9699 31.2723 45.044 30.6709 46.0642 29.9286L46.295 29.7544ZM35.1048 29.2927C31.0407 30.3627 28.4266 31.9883 27.4465 32.6754C28.4591 32.1385 29.494 31.645 30.5486 31.1962L30.655 31.1506L30.9398 31.0317L31.0987 30.9668L31.36 30.8617L31.5563 30.7843L31.7982 30.6903L32.0277 30.6032L32.2544 30.5189L32.5157 30.4221L32.723 30.3488L33.0327 30.241L33.2041 30.183C33.7313 30.0042 34.2632 29.8396 34.7993 29.6895C35.2942 29.5485 35.7919 29.4199 36.2923 29.3038C35.8969 29.2969 35.5002 29.2955 35.1034 29.2927M27.3843 29.4863C24.4814 30.1249 19.0777 31.8307 14.151 36.2128C14.104 36.2695 14.0556 36.3262 14.01 36.3842C16.5148 34.5692 20.8209 31.8708 26.1444 30.23L26.6628 30.0738C27.5613 29.8111 28.4723 29.5872 29.3888 29.4019C28.7211 29.4268 28.0534 29.4558 27.3843 29.4863ZM50.637 47.0243C50.5862 47.0483 50.5355 47.0727 50.485 47.0975L50.402 47.139L50.3371 47.1708L50.2361 47.2206L50.1933 47.2427L50.0799 47.298L50.055 47.3118L49.9362 47.3726L49.9223 47.3795L49.6777 47.5081C49.5613 47.8549 49.4185 48.1923 49.2505 48.5172C48.9105 49.0978 48.5013 49.6342 48.0147 50.0655C47.7787 50.2814 47.514 50.4638 47.2281 50.6073C46.9517 50.7456 46.6406 50.8257 46.331 50.9128C45.7089 51.076 45.0786 51.2308 44.4482 51.369C43.8192 51.5155 43.1875 51.651 42.5544 51.7768C41.924 51.9081 41.2881 52.027 40.655 52.1307C40.3371 52.1818 40.0205 52.2288 39.7081 52.2523C39.6321 52.2565 39.556 52.2579 39.4786 52.2579C39.4463 52.2565 39.414 52.2537 39.3818 52.2496C39.3643 52.2479 39.3471 52.2437 39.3307 52.2371C39.3146 52.2351 39.2987 52.2309 39.2837 52.2247C39.1385 52.1708 38.9987 52.1032 38.8662 52.0229C38.3133 51.6994 37.7769 51.3123 37.2489 50.9239C36.8383 50.6253 36.4125 50.2783 36.0006 49.9576L35.9647 50.0115L35.9674 50.0143L36.0448 50.0834H36.0421L35.9868 50.0406L36.3324 50.4691L36.3738 50.5189C36.5494 50.7345 37.2862 51.6247 38.1612 52.5302C38.8275 53.2186 39.6321 53.567 40.5527 53.567C40.8679 53.567 41.1997 53.5241 41.5342 53.4412L42.524 53.1923C43.5469 52.938 44.679 52.6546 45.4311 52.4514L45.5762 52.4113C45.6826 52.3837 45.778 52.356 45.8651 52.3311C46.0116 52.2897 46.1596 52.251 46.3089 52.2164C47.2212 51.9952 48.4667 51.6953 49.1275 50.3157C49.6536 49.234 50.1868 48.1557 50.7269 47.0809L50.7932 46.9482L50.637 47.0243ZM35.7089 49.9991L35.6495 49.941C35.308 50.3378 35.0039 50.7483 34.6514 51.134C34.4441 51.3662 34.2312 51.5943 34.0155 51.8183C33.8051 52.0423 33.5866 52.2586 33.3603 52.4666C33.2497 52.5648 33.1253 52.6684 33.0216 52.7196C32.8913 52.7743 32.7561 52.8169 32.618 52.8468C32.3277 52.9131 32.0305 52.9656 31.7319 53.0113C31.1347 53.108 30.532 53.1868 29.9307 53.2532C29.3266 53.3292 28.7238 53.3928 28.1198 53.4495C27.5157 53.5103 26.9102 53.5587 26.3089 53.5905C26.1568 53.5974 26.0061 53.6029 25.8582 53.6029C25.7132 53.6031 25.5684 53.5906 25.4255 53.5656C25.1343 53.5111 24.8523 53.4157 24.5878 53.2822C24.0412 53.003 23.5428 52.638 23.1115 52.2012C23.1723 52.2772 23.2386 52.3519 23.3008 52.4238L23.258 52.3823C23.2162 52.3425 23.1761 52.301 23.1377 52.2579C22.9235 52.016 21.0034 50.2811 19.9998 49.3784L19.7745 49.2692C19.9638 49.5623 20.156 49.8539 20.3495 50.1442C20.6453 50.5894 20.9467 51.029 21.255 51.4658C21.3877 51.6524 21.5231 51.839 21.66 52.0215C22.7493 53.484 24.122 54.836 26.7568 54.836C27.0858 54.836 27.4369 54.8152 27.7977 54.7724L28.0437 54.7434L28.2704 54.7157C30.561 54.442 31.1886 54.3245 31.537 54.2609C31.6282 54.2457 31.7042 54.2305 31.7885 54.2194L31.8881 54.2029C31.9019 54.2029 32.676 54.0978 33.4335 53.7149C33.9547 53.4508 34.4676 53.0527 34.7191 52.4666C35.3536 50.9875 35.4822 50.635 35.4864 50.6225L35.7089 49.9991Z"/>
<path fill="#0E0F0D" d="M42.0638 36.5653C42.1481 36.5642 42.2308 36.5423 42.3045 36.5015C42.3783 36.4607 42.4408 36.4023 42.4866 36.3316C42.5323 36.2608 42.5599 36.1798 42.5668 36.0958C42.5737 36.0118 42.5597 35.9274 42.5261 35.8501C42.4926 35.7728 42.4404 35.705 42.3743 35.6527C42.3082 35.6004 42.2301 35.5653 42.1472 35.5504C42.0642 35.5356 41.9789 35.5415 41.8987 35.5676C41.8186 35.5936 41.7461 35.6391 41.6878 35.7C41.618 35.7728 41.5713 35.8645 41.5536 35.9638C41.5358 36.063 41.5478 36.1653 41.5879 36.2577C41.6281 36.3502 41.6947 36.4287 41.7794 36.4835C41.864 36.5382 41.963 36.5667 42.0638 36.5653ZM45.1879 38.8656C44.5175 38.5407 43.7848 38.9527 42.4481 38.9776C41.4528 39.0135 40.6192 39.0245 40.5639 37.457C40.5086 35.8838 41.1445 34.5858 42.1398 34.5512C43.1351 34.5153 44.042 35.7608 44.1636 37.327C44.1982 37.7597 44.1498 38.0735 44.0447 38.3085C44.9681 38.1979 45.1769 38.8283 45.1879 38.8656ZM27.8158 36.9441C27.9054 36.942 27.9928 36.9163 28.0693 36.8697C28.1458 36.823 28.2087 36.7571 28.2516 36.6784C28.2945 36.5997 28.3159 36.5112 28.3137 36.4216C28.3115 36.3321 28.2857 36.2446 28.239 36.1682C28.1923 36.0917 28.1263 36.0289 28.0476 35.9861C27.9689 35.9433 27.8803 35.9219 27.7907 35.9242C27.7012 35.9265 27.6138 35.9523 27.5374 35.9991C27.461 36.0459 27.3982 36.112 27.3555 36.1907C27.3132 36.2694 27.2923 36.3577 27.2948 36.4469C27.2973 36.5362 27.3231 36.6232 27.3696 36.6994C27.4162 36.7756 27.4819 36.8382 27.5601 36.8812C27.6384 36.9241 27.7266 36.9458 27.8158 36.9441ZM29.353 37.7666C29.3668 39.337 28.5402 39.2416 27.5449 39.2513C27.4477 39.2547 27.3504 39.2565 27.2532 39.2568C27.1426 39.2596 27.0348 39.2609 26.9311 39.2582C25.9648 39.2568 25.3483 39.2126 24.8023 39.5098C24.8147 39.4752 25.0552 38.9375 25.922 38.7177C25.8252 38.5048 25.7658 38.2103 25.7506 37.8012C25.6911 36.2322 26.6532 34.9466 27.6485 34.9369C28.6438 34.9272 29.3378 36.1962 29.353 37.7666ZM48.1946 26.9731C48.1872 27.0701 48.178 27.1669 48.1669 27.2634C47.7716 27.1556 47.3762 27.0561 46.9781 26.9635C45.6649 26.6732 44.3336 26.4575 42.9969 26.3041L42.8559 26.2902C42.8651 26.2705 42.8729 26.2502 42.8794 26.2294C42.9209 26.0829 42.954 25.9364 42.9872 25.7898C43.3328 24.2568 43.3148 22.7321 43.2747 21.9925L48.0301 23.3514C48.2179 24.5489 48.274 25.7636 48.1946 26.9731ZM42.2808 26.0635C42.266 26.1174 42.266 26.1742 42.2808 26.228C41.7832 26.1755 41.2855 26.1299 40.7879 26.0898C41.345 24.9134 41.4666 23.6596 41.4943 23.2186C41.9228 22.9131 42.3499 22.5454 42.6637 22.2593C42.6914 23.1025 42.6707 24.6314 42.2808 26.0635ZM27.6333 26.2253C27.6473 26.1723 27.6473 26.1165 27.6333 26.0635C27.2421 24.6342 27.2214 23.1053 27.249 22.2593C27.5628 22.5454 27.9886 22.9131 28.4199 23.2186C28.4448 23.661 28.5678 24.9093 29.1249 26.0857C28.6273 26.1257 28.1296 26.1714 27.632 26.2239L27.6333 26.2253ZM26.9145 26.3041C26.2482 26.3856 25.5805 26.47 24.9156 26.5805C24.2535 26.6939 23.5913 26.8155 22.9347 26.9621C22.5352 27.0547 22.1412 27.1542 21.7459 27.2607C21.7407 27.2137 21.7361 27.1667 21.732 27.1197C21.6864 26.6262 21.5993 25.2079 21.8841 23.35L26.6367 21.9925C26.6007 22.703 26.5814 24.1434 26.8855 25.6157C26.9283 25.8216 26.9767 26.0262 27.032 26.2294C27.0389 26.2488 27.0458 26.2695 27.0555 26.2875L26.9145 26.3041ZM50.7409 28.2325L50.622 28.1744L50.4243 28.0776C50.3785 28.0551 50.3342 28.0297 50.2916 28.0016C49.7966 27.7809 49.2877 27.5925 48.7682 27.4376C48.7723 27.424 48.7756 27.4101 48.7779 27.3961C48.7848 27.3436 48.9023 26.4644 48.8318 25.0807C48.7967 24.4016 48.7238 23.7251 48.6134 23.0541C48.6038 22.9958 48.578 22.9414 48.5389 22.8972C48.4998 22.8529 48.4489 22.8206 48.3922 22.8039L47.7135 22.6104C47.5684 17.3436 45.4091 14.8664 45.3414 14.7904C47.2698 17.909 47.2532 21.6082 47.22 22.4694L43.0176 21.2695L43.0093 21.2681C42.9911 21.2641 42.9726 21.2613 42.954 21.2598H42.9402C42.9167 21.2585 42.8932 21.2598 42.8711 21.2654L42.86 21.2681C42.8409 21.2722 42.8223 21.2787 42.8047 21.2875L42.7868 21.2958L42.7453 21.3234L42.7342 21.3303C42.7301 21.3331 42.7287 21.3373 42.7273 21.3386L42.7135 21.3483C42.6177 21.4432 42.5209 21.5373 42.4232 21.6303C42.4343 21.2363 42.437 20.6322 42.3928 19.8941L42.379 19.6812C42.2463 17.8274 41.8122 15.2245 40.5073 12.9449C40.5197 12.9767 40.6483 13.3555 40.8141 13.9928C41.2344 15.5949 41.8938 18.8379 41.5344 22.3574L41.5302 22.4058L41.5122 22.4196C41.3511 22.5499 41.1851 22.6739 41.0146 22.7915C40.9735 22.8199 40.9397 22.8577 40.9159 22.9016C40.8921 22.9456 40.8791 22.9945 40.8777 23.0445C40.8777 23.0611 40.8404 24.6342 40.1506 25.9751C40.1368 25.9958 40.1313 26.0179 40.123 26.0414C38.403 25.9262 36.6796 25.8694 34.9557 25.8714C33.2314 25.8685 31.5076 25.9238 29.7871 26.0373C29.7801 26.0165 29.7732 25.9944 29.7636 25.9737C29.071 24.6342 29.0351 23.0611 29.0337 23.0445C29.0325 22.9946 29.0196 22.9458 28.9961 22.9018C28.9726 22.8579 28.939 22.8201 28.8982 22.7915C28.7208 22.6698 28.5484 22.5412 28.3812 22.4058C28.0315 19.0577 28.6093 15.9557 29.0281 14.2665C29.2272 13.4647 29.3917 12.9809 29.4055 12.9449C27.5145 16.2502 27.4495 20.2397 27.491 21.6303C27.3113 21.4644 27.2007 21.3538 27.1979 21.3483L27.1841 21.3386L27.1785 21.3303L27.1675 21.3234C27.1542 21.3138 27.1404 21.305 27.126 21.2972L27.1053 21.2861C27.0894 21.2776 27.072 21.272 27.0541 21.2695L27.0417 21.2654C27.019 21.2602 26.9958 21.2579 26.9726 21.2585H26.9546C26.9374 21.2606 26.9203 21.2638 26.9035 21.2681L26.8938 21.2695L22.6942 22.4694C22.6596 21.6068 22.6416 17.9076 24.57 14.7904C24.5037 14.8664 22.3444 17.3436 22.1979 22.6118L21.5233 22.8053C21.4661 22.8211 21.4147 22.8529 21.375 22.897C21.3353 22.9411 21.3091 22.9956 21.2994 23.0541C21.1888 23.7246 21.1169 24.4006 21.081 25.0779C21.0105 26.4644 21.128 27.3436 21.1362 27.3961L21.1445 27.4376C21.0906 27.4542 21.0353 27.4694 20.9814 27.4874C20.5211 27.6394 20.058 27.797 19.6184 28.003C19.5783 28.0285 19.5368 28.0515 19.494 28.0721L19.4871 28.0763L19.288 28.173L19.1844 28.2256L19.1194 28.2615C19.4304 28.1385 19.7539 28.0486 20.0746 27.9698C20.3981 27.8883 20.7229 27.8178 21.0492 27.7542C21.703 27.6325 22.3583 27.5261 23.0176 27.4459C23.6756 27.3588 24.3364 27.2869 24.9986 27.2316C25.6593 27.1763 26.3201 27.1197 26.9836 27.0796C29.6384 26.932 32.2969 26.8628 34.9557 26.8722C37.6167 26.8736 40.2764 26.9165 42.9278 27.0796C43.5913 27.1183 44.2521 27.1736 44.9156 27.2303C45.5778 27.2855 46.2358 27.3588 46.8924 27.4459C47.5532 27.5261 48.2098 27.6311 48.8636 27.7542C49.1899 27.8164 49.5133 27.8883 49.8354 27.9698C50.1603 28.0486 50.481 28.1385 50.7934 28.2615L50.7409 28.2325Z"/>
<path fill="#0E0F0D" d="M35.1256 15.9475V23.0404H36.1126V24.3578H32.7756V23.0404H33.7626V15.9489H31.3656V17.1142H30.2072V14.8181H38.681V17.1142H37.5226V15.9475H35.1256ZM39.5533 17.963V13.9666H29.3376V17.9616H32.2378V16.7962H32.8903V22.1902H31.9061V25.2051H36.9835V22.1888H35.9965V16.7962H36.6503V17.963H39.5533Z"/>
</g>
<defs>
<clipPath id="clip0_4140_8339">
<path fill="white" d="M0.400024 9.35742C0.400024 4.38686 4.42946 0.357422 9.40002 0.357422H55.4C60.3706 0.357422 64.4 4.38686 64.4 9.35742V55.3574C64.4 60.328 60.3706 64.3574 55.4 64.3574H9.40002C4.42946 64.3574 0.400024 60.328 0.400024 55.3574V9.35742Z"/>
</clipPath>
</defs>
</svg>